# xmcd CD database file
#
# Track frame offsets:
#	150
#	10635
#	24378
#	39443
#	52367
#	76825
#	94346
#	110490
#	126027
#	140287
#	152176
#	167020
#	187238
#	200542
#
# Disc length: 2756 seconds
#
# Revision: 0
# Processed by: cddbd v1.5.2PL0 Copyright (c) Steve Scherf et al.
# Submitted via: CDex 1.70beta2
#
DISCID=b90ac20e
DTITLE=Dave Harris - In the evenin'
DYEAR=2006
DGENRE=Blues
TTITLE0=The Busker's Blues
TTITLE1=Strung Out
TTITLE2=Give Them Their Flowers
TTITLE3=Raining in My harrt
TTITLE4=Bulldose Blues Medley
TTITLE5=Slim's Train Song
TTITLE6=On a Monday
TTITLE7=In the Evenin'
TTITLE8=My Creole Bell
TTITLE9=San Francisco Bay Blues
TTITLE10=Let's work Together
TTITLE11=The Rock Island Line
TTITLE12=Feeling for the Blues
TTITLE13=Fixtures and knobs
EXTD=YEAR: 2006
EXTT0=
EXTT1=
EXTT2=
EXTT3=
EXTT4=
EXTT5=
EXTT6=
EXTT7=
EXTT8=
EXTT9=
EXTT10=
EXTT11=
EXTT12=
EXTT13=
PLAYORDER=
